Coordinates
version=1
nRows=18
nColumns=22
inDegrees=yes

Units are S.I. units (second, meters, Newtons, ...)
If the header above contains a line with 'inDegrees', this indicates whether rotational values are in degrees (yes) or radians (no).

endheader
time	pelvis_tilt	pelvis_list	pelvis_rotation	pelvis_tx	pelvis_ty	pelvis_tz	hip_flexion_r	hip_adduction_r	hip_rotation_r	knee_angle_r	ankle_angle_r	subtalar_angle_r	hip_flexion_l	hip_adduction_l	hip_rotation_l	knee_angle_l	ankle_angle_l	subtalar_angle_l	lumbar_extension	lumbar_bending	lumbar_rotation
      0.01000000	     -4.64456923	     -3.07460988	   -150.20862483	      0.05670553	      0.95704460	      1.21642434	     -7.62391042	      0.60575786	    -31.48592575	     -9.13483098	     12.10390083	      0.01626296	     -3.42311231	      1.16055847	     13.03381540	     -8.69345764	     14.56776501	     -3.60813037	    -13.34583503	      2.81050193	     -1.16240356
      0.02000000	     -4.58221303	     -3.13464369	   -149.87399139	      0.05712921	      0.95697325	      1.21671116	     -7.59289507	      0.55365582	    -31.72929982	     -9.18476130	     12.12722915	      0.01735731	     -3.37940182	      1.21825370	     13.32314943	     -8.63804649	     14.48719530	     -3.54640214	    -13.32065171	      2.74423072	     -1.05194951
      0.03000000	     -4.52325041	     -3.20816012	   -149.46005530	      0.05760382	      0.95691942	      1.21708406	     -7.58610151	      0.50402300	    -32.05639014	     -9.22412321	     12.18249413	      0.01269220	     -3.34085453	      1.27983233	     13.66518144	     -8.57997711	     14.37316093	     -3.46785314	    -13.30382282	      2.67564946	     -0.96022555
      0.04000000	     -4.47250210	     -3.29215247	   -148.99402207	      0.05807733	      0.95688859	      1.21752616	     -7.60481630	      0.45813095	    -32.43379162	     -9.25725122	     12.23514920	      0.00401014	     -3.32621035	      1.33934848	     14.05661671	     -8.49916765	     14.25028483	     -3.37625407	    -13.29121617	      2.60634994	     -0.87726086
      0.05000000	     -4.43163482	     -3.38341360	   -148.49070678	      0.05856326	      0.95688604	      1.21801185	     -7.64647812	      0.41861052	    -32.85480545	     -9.28335228	     12.29014744	     -0.00800856	     -3.33160160	      1.39558083	     14.49010913	     -8.40154884	     14.11515854	     -3.27775257	    -13.29010311	      2.54121790	     -0.81676994
      0.06000000	     -4.39881361	     -3.47823980	   -147.97082209	      0.05905137	      0.95690100	      1.21851452	     -7.70136620	      0.38404387	    -33.29085850	     -9.30945044	     12.34680257	     -0.02364110	     -3.35021041	      1.44823929	     14.94078268	     -8.29746834	     13.97812532	     -3.17731039	    -13.29818645	      2.48055018	     -0.77121257
      0.07000000	     -4.37021550	     -3.57086269	   -147.44559930	      0.05953955	      0.95692138	      1.21902209	     -7.75890858	      0.35353171	    -33.73619587	     -9.34254564	     12.40629314	     -0.04388117	     -3.37402659	      1.49537535	     15.40353926	     -8.19143555	     13.84300638	     -3.07493463	    -13.30814431	      2.42816511	     -0.74436517
      0.08000000	     -4.34097580	     -3.66079520	   -146.92695649	      0.06005672	      0.95694196	      1.21949294	     -7.80799929	      0.32244728	    -34.17987566	     -9.38367600	     12.47285119	     -0.06789243	     -3.39224684	      1.54056970	     15.85882444	     -8.08991442	     13.70899298	     -2.96951664	    -13.32813049	      2.37851561	     -0.73328775
      0.09000000	     -4.31015768	     -3.74089932	   -146.42379600	      0.06056397	      0.95695247	      1.21993930	     -7.84536830	      0.29475130	    -34.61181705	     -9.43433702	     12.54205216	     -0.09437935	     -3.40436093	      1.57895475	     16.30266836	     -7.99321183	     13.58642907	     -2.86308756	    -13.34097083	      2.33880591	     -0.72893567
      0.10000000	     -4.27625771	     -3.81510841	   -145.93863082	      0.06107084	      0.95695593	      1.22033685	     -7.87076688	      0.26622181	    -35.03339317	     -9.49225673	     12.61391127	     -0.12201643	     -3.40924699	      1.61433108	     16.73569440	     -7.90067499	     13.47174956	     -2.75607671	    -13.35258545	      2.30122052	     -0.73343057
      0.11000000	     -4.24015243	     -3.88538521	   -145.47960359	      0.06155366	      0.95695707	      1.22069061	     -7.88878545	      0.23667066	    -35.42724473	     -9.55190300	     12.68365413	     -0.14924356	     -3.41206080	      1.64996839	     17.14717340	     -7.81333881	     13.36894094	     -2.65326240	    -13.36327083	      2.26537267	     -0.73411126
      0.12000000	     -4.20276909	     -3.95438952	   -145.04646104	      0.06201854	      0.95695773	      1.22096394	     -7.90314252	      0.20760255	    -35.80022259	     -9.60755951	     12.74876755	     -0.17662745	     -3.41335225	      1.68465634	     17.54602914	     -7.72698959	     13.27477259	     -2.55600651	    -13.38232245	      2.22417423	     -0.73114453
      0.13000000	     -4.16787912	     -4.02165323	   -144.63893607	      0.06244347	      0.95696135	      1.22118421	     -7.91980305	      0.18158600	    -36.14646159	     -9.65753945	     12.80322680	     -0.20383333	     -3.42013883	      1.71578881	     17.93126679	     -7.63997708	     13.19552195	     -2.46937958	    -13.40280712	      2.18283367	     -0.71811626
      0.14000000	     -4.13642153	     -4.09062141	   -144.25505966	      0.06283276	      0.95697192	      1.22135182	     -7.94322437	      0.15872994	    -36.46815812	     -9.69785163	     12.84831012	     -0.23165285	     -3.43127303	      1.74775118	     18.29829944	     -7.55947014	     13.12225211	     -2.39437732	    -13.42969252	      2.13832741	     -0.69454606
      0.15000000	     -4.10799503	     -4.15972719	   -143.89406420	      0.06320951	      0.95698780	      1.22144691	     -7.96999068	      0.14034759	    -36.76832975	     -9.72720351	     12.88519205	     -0.26168265	     -3.44434901	      1.77708403	     18.64833289	     -7.48002257	     13.05290710	     -2.32965929	    -13.47044469	      2.09058347	     -0.66225956
      0.16000000	     -4.08430556	     -4.22803163	   -143.55653431	      0.06355073	      0.95700786	      1.22150278	     -8.00314892	      0.12738406	    -37.03765465	     -9.74799355	     12.91191289	     -0.29389774	     -3.46106601	      1.80394391	     18.97702433	     -7.40664352	     12.99097528	     -2.27563405	    -13.51294221	      2.04435934	     -0.61313432
      0.17000000	     -4.06534040	     -4.29467524	   -143.24092085	      0.06386145	      0.95703202	      1.22152718	     -8.04080009	      0.11865061	    -37.28394681	     -9.76405650	     12.93225782	     -0.32836066	     -3.48090013	      1.82815285	     19.28644364	     -7.33778321	     12.92998921	     -2.23047992	    -13.55545788	      2.00089082	     -0.55230270
      0.18000000	     -4.04972680	     -4.35802856	   -142.95472227	      0.06413689	      0.95705731	      1.22149381	     -8.07904902	      0.11525311	    -37.50115127	     -9.77306887	     12.94974815	     -0.36188474	     -3.50094368	      1.84777885	     19.56111993	     -7.27298559	     12.86850642	     -2.19493927	    -13.60219062	      1.95787539	     -0.47516275
